<?xml version="1.0" encoding="UTF-8"?>
<svg version="1.1" xmlns="http://www.w3.org/2000/svg" width="1024" height="1024">
<path d="M0 0 C337.92 0 675.84 0 1024 0 C1024 337.92 1024 675.84 1024 1024 C686.08 1024 348.16 1024 0 1024 C0 686.08 0 348.16 0 0 Z " fill="#1A1A1A" transform="translate(0,0)"/>
<path d="M0 0 C2.23876612 1.71891704 4.43021651 3.48542334 6.6171875 5.26953125 C7.19984375 5.70523437 7.7825 6.1409375 8.3828125 6.58984375 C20.54295715 16.07930243 29.80370903 31.57074399 33.6171875 46.26953125 C34.37672438 48.54445482 35.16648459 50.80626068 35.96875 53.06640625 C37.94498332 59.78083753 37.86856117 66.58373023 37.9296875 73.51953125 C37.95869141 74.60105469 37.98769531 75.68257813 38.01757812 76.796875 C38.0928856 86.40147425 35.99704479 94.68756455 29.32421875 101.8671875 C20.18998817 109.37105198 5.57358054 108.00862183 -5.42626953 106.98681641 C-10.74021259 106.40086831 -16.03987225 105.72317675 -21.33984375 105.0234375 C-45.77942289 101.87216294 -69.79253021 102.88470214 -94.16162109 105.84643555 C-125.95002624 109.66767271 -125.95002624 109.66767271 -135.81640625 101.953125 C-138.9380512 98.59794053 -140.69089072 94.48349374 -142.3828125 90.26953125 C-142.75148437 89.4084375 -143.12015625 88.54734375 -143.5 87.66015625 C-144.7779793 82.75181098 -144.7114912 78.00802079 -144.6953125 72.95703125 C-144.71142578 71.96251953 -144.72753906 70.96800781 -144.74414062 69.94335938 C-144.74790173 64.21520151 -144.12401041 59.53541249 -142.09350586 54.17504883 C-141.24426272 51.89805029 -140.84969397 49.67104009 -140.5078125 47.26953125 C-139.67480922 42.73036932 -138.00978638 39.28836381 -135.6015625 35.375 C-134.30989808 33.27166808 -134.30989808 33.27166808 -133.44921875 30.83203125 C-126.0260919 12.99477405 -106.90691012 -2.24189259 -89.7421875 -9.91015625 C-86.98268237 -10.97595314 -84.21356528 -11.87165964 -81.3828125 -12.73046875 C-80.2484375 -13.10300781 -79.1140625 -13.47554688 -77.9453125 -13.859375 C-51.65116847 -21.59136202 -22.11865426 -16.06321941 0 0 Z " fill="#FDFDFD" transform="translate(343.3828125,404.73046875)"/>
<path d="M0 0 C7.40905991 6.55468183 13.04173558 14.48325329 18 23 C18.50660156 23.86818359 18.50660156 23.86818359 19.0234375 24.75390625 C25.85129134 37.39909156 28.18607933 50.55961236 28.25 64.75 C28.270625 65.87921875 28.29125 67.0084375 28.3125 68.171875 C28.35455785 77.25637043 27.33817157 86.14050077 21.5859375 93.53125 C13.38060617 101.13027606 1.1619329 100.45931099 -9.23876953 100.15380859 C-15.24254576 99.81938074 -21.19621701 98.99166084 -27.14770508 98.15527344 C-40.01545107 96.35442433 -52.89056415 95.7399495 -65.875 95.6875 C-66.59845612 95.68355225 -67.32191223 95.67960449 -68.06729126 95.67553711 C-80.55213506 95.64422075 -92.68889051 96.72364216 -105.02880859 98.5769043 C-117.21413376 100.38115539 -131.06414796 102.42576364 -142.25 96.1875 C-148.4434494 91.26089253 -152.40409473 84.79391885 -153.38720703 76.88500977 C-153.53772722 73.37227684 -153.55447682 69.89052345 -153.5 66.375 C-153.48718994 65.12823486 -153.47437988 63.88146973 -153.46118164 62.59692383 C-152.95212361 39.44762325 -142.71358439 17.14239206 -126 1 C-113.76384374 -10.01997071 -100.0961003 -18.128786 -84 -22 C-83.08476563 -22.22429687 -82.16953125 -22.44859375 -81.2265625 -22.6796875 C-51.43130051 -28.77227609 -22.91397317 -19.0292201 0 0 Z " fill="#FDFDFD" transform="translate(796,412)"/>
<path d="M0 0 C3.44312714 2.1244827 4.71617547 3.14852641 6 7 C6.52462157 10.34446248 6.69552133 12.82218285 4.9296875 15.8125 C3.08030306 18.0429134 1.10511022 20.00675554 -1 22 C-1.47775879 22.45568359 -1.95551758 22.91136719 -2.44775391 23.38085938 C-26.63072031 46.1289247 -58.74319144 55.82696694 -91.5625 55.1875 C-97.17952092 54.99805579 -102.52087947 54.24849752 -108 53 C-109.216875 52.74347656 -110.43375 52.48695313 -111.6875 52.22265625 C-133.66779993 47.35415301 -152.47673637 37.18851532 -169 22 C-169.93328125 21.16984375 -170.8665625 20.3396875 -171.828125 19.484375 C-174.86820061 16.00687843 -174.72557364 13.8239165 -174.48046875 9.37890625 C-174 7 -174 7 -171.9375 3.9375 C-168.37979221 1.59092678 -166.26693027 0.92514157 -162 1 C-158.04688779 2.9765561 -155.23383188 5.70426026 -152 8.6875 C-130.02474819 28.55045948 -104.31788758 33.93673797 -75.51171875 33.18798828 C-64.51535574 32.59933425 -53.79970353 30.07346856 -44 25 C-42.90558594 24.54753906 -41.81117188 24.09507812 -40.68359375 23.62890625 C-30.22036404 19.17974453 -21.52463391 12.10454246 -13.42578125 4.28515625 C-9.14616246 0.2536313 -5.80907001 -0.93986903 0 0 Z " fill="#F8F8F8" transform="translate(596,576)"/>
<path d="M0 0 C0 2.97959293 -0.099932 5.16132401 -1 8 C-5.21621622 12 -5.21621622 12 -8 12 C-9.28463521 13.56418154 -9.28463521 13.56418154 -10.5 15.5 C-11.78125 17.46875 -11.78125 17.46875 -13 19 C-13.66 19 -14.32 19 -15 19 C-11.71961725 11.71586805 -5.78702026 5.42533149 0 0 Z " fill="#E4E4E4" transform="translate(229,411)"/>
<path d="M0 0 C0.33 0 0.66 0 1 0 C1.06058594 0.81984375 1.12117188 1.6396875 1.18359375 2.484375 C1.26738281 3.56203125 1.35117187 4.6396875 1.4375 5.75 C1.55931641 7.35101563 1.55931641 7.35101563 1.68359375 8.984375 C1.91119089 11.88037635 1.91119089 11.88037635 2.5625 14.15625 C3.27784119 17.17090214 2.52128704 19.98811933 2 23 C0.68 22.67 -0.64 22.34 -2 22 C-1.84660156 21.35675781 -1.69320313 20.71351563 -1.53515625 20.05078125 C-0.84253326 16.10232463 -0.64199119 12.1868113 -0.4375 8.1875 C-0.39431641 7.39923828 -0.35113281 6.61097656 -0.30664062 5.79882812 C-0.20121679 3.86605785 -0.10016906 1.93304974 0 0 Z " fill="#303030" transform="translate(381,474)"/>
<path d="M0 0 C0.66 0.66 1.32 1.32 2 2 C0.68 2.33 -0.64 2.66 -2 3 C-2 3.66 -2 4.32 -2 5 C-2.66 5 -3.32 5 -4 5 C-4.33 6.32 -4.66 7.64 -5 9 C-5.33 8.34 -5.66 7.68 -6 7 C-7.65 7 -9.3 7 -11 7 C-11 6.34 -11 5.68 -11 5 C-7.37 3.35 -3.74 1.7 0 0 Z " fill="#232323" transform="translate(569,616)"/>
<path d="M0 0 C0.33 1.32 0.66 2.64 1 4 C-0.3303125 4.556875 -0.3303125 4.556875 -1.6875 5.125 C-5.58399884 7.33056538 -7.32630578 9.46128706 -10 13 C-10.66 12.67 -11.32 12.34 -12 12 C-8.27653164 7.57905197 -4.70478962 3.42166518 0 0 Z " fill="#DDDDDD" transform="translate(675,409)"/>
<path d="M0 0 C2.64 1.65 5.28 3.3 8 5 C5.38058783 6.74627478 3.96175123 7.38722388 1 8 C0.02391783 5.07175348 -0.08226668 3.04386724 0 0 Z " fill="#272727" transform="translate(649,504)"/>
<path d="M0 0 C1.66666667 0 3.33333333 0 5 0 C5.125 3.375 5.125 3.375 5 7 C4.34 7.66 3.68 8.32 3 9 C2.01 6.03 1.02 3.06 0 0 Z " fill="#323232" transform="translate(818,445)"/>
<path d="M0 0 C1.65 0 3.3 0 5 0 C5.66 1.65 6.32 3.3 7 5 C7.66 5 8.32 5 9 5 C8.67 5.99 8.34 6.98 8 8 C6.85073734 7.04578192 5.70569459 6.08647955 4.5625 5.125 C3.92441406 4.59132813 3.28632813 4.05765625 2.62890625 3.5078125 C1 2 1 2 0 0 Z " fill="#303030" transform="translate(350,410)"/>
<path d="M0 0 C2.78211944 0.37596209 4.5879284 0.67318459 6.8125 2.4375 C8 4 8 4 8 6 C8.66 6.33 9.32 6.66 10 7 C6.58678765 7 5.60527115 6.33132534 2.8125 4.5 C2.09707031 4.0359375 1.38164062 3.571875 0.64453125 3.09375 C0.10183594 2.7328125 -0.44085938 2.371875 -1 2 C-0.67 1.34 -0.34 0.68 0 0 Z " fill="#2D2D2D" transform="translate(337,399)"/>
<path d="M0 0 C2.5 2.3125 2.5 2.3125 5 5 C5 5.99 5 6.98 5 8 C2.5 6.8125 2.5 6.8125 0 5 C-0.3125 2.3125 -0.3125 2.3125 0 0 Z " fill="#E6E6E6" transform="translate(800,417)"/>
<path d="M0 0 C0.99 0.33 1.98 0.66 3 1 C1.68 2.65 0.36 4.3 -1 6 C-2.32 5.34 -3.64 4.68 -5 4 C-4.01 3.67 -3.02 3.34 -2 3 C-1.34 2.01 -0.68 1.02 0 0 Z " fill="#252525" transform="translate(578,581)"/>
<path d="M0 0 C0.33 0.99 0.66 1.98 1 3 C-0.32 4.32 -1.64 5.64 -3 7 C-3.99 6.34 -4.98 5.68 -6 5 C-4.02 3.35 -2.04 1.7 0 0 Z " fill="#383838" transform="translate(594,598)"/>
<path d="M0 0 C0.33 0.66 0.66 1.32 1 2 C1.99 2.33 2.98 2.66 4 3 C3.01 4.485 3.01 4.485 2 6 C1.01 5.67 0.02 5.34 -1 5 C-1.6875 2.9375 -1.6875 2.9375 -2 1 C-1.34 0.67 -0.68 0.34 0 0 Z " fill="#272727" transform="translate(570,585)"/>
<path d="M0 0 C1.0326802 2.78823655 1.04509293 3.8677274 0.0625 6.75 C-0.288125 7.4925 -0.63875 8.235 -1 9 C-3 7 -3 7 -3.125 4.375 C-3.08375 3.59125 -3.0425 2.8075 -3 2 C-2.01 2.33 -1.02 2.66 0 3 C0 2.01 0 1.02 0 0 Z " fill="#4A4A4A" transform="translate(202,453)"/>
<path d="M0 0 C3.78496138 1.51398455 4.0072198 2.0144396 6 6 C3.36 4.68 0.72 3.36 -2 2 C-1.34 1.34 -0.68 0.68 0 0 Z " fill="#333333" transform="translate(778,397)"/>
<path d="M0 0 C2.31 0 4.62 0 7 0 C7 0.99 7 1.98 7 3 C7.99 3.33 8.98 3.66 10 4 C6.28111761 3.49287967 3.26545761 2.88391785 0 1 C0 0.67 0 0.34 0 0 Z " fill="#515151" transform="translate(467,600)"/>
<path d="M0 0 C0.53625 0.226875 1.0725 0.45375 1.625 0.6875 C-0.355 1.0175 -2.335 1.3475 -4.375 1.6875 C-4.375 2.6775 -4.375 3.6675 -4.375 4.6875 C-5.695 4.0275 -7.015 3.3675 -8.375 2.6875 C-2.95961538 -0.38942308 -2.95961538 -0.38942308 0 0 Z " fill="#C6C6C6" transform="translate(432.375,577.3125)"/>
<path d="M0 0 C3.3 0 6.6 0 10 0 C10 0.33 10 0.66 10 1 C8.35 1 6.7 1 5 1 C4.67 1.99 4.34 2.98 4 4 C3.67 3.34 3.34 2.68 3 2 C2.01 1.67 1.02 1.34 0 1 C0 0.67 0 0.34 0 0 Z " fill="#202020" transform="translate(712,386)"/>
</svg>
